<mxfile host="app.diagrams.net" modified="2023-12-06T20:29:40.759Z" agent="Mozilla/5.0 (Windows NT 10.0; Win64; x64) AppleWebKit/537.36 (KHTML, like Gecko) Chrome/119.0.0.0 Safari/537.36" version="22.1.7" etag="h_cwkSSI817LgoH0EKH9" type="github">
  <diagram name="Page-1" id="FMFvdvRWRbOe2NphVMOS">
    <mxGraphModel>
      <root>
        <mxCell id="0" />
        <mxCell id="1" parent="0" />
      </root>
    </mxGraphModel>
  </diagram>
</mxfile>
